<svg xmlns="http://www.w3.org/2000/svg" width="665" height="251" viewBox="0 0 665 251" fill="none">
<path fill-rule="evenodd" clip-rule="evenodd" d="M21.3827 0C9.72673 0 0 9.72877 0 21.3569C0 30.644 5.78551 38.4073 13.845 41.4672V120.644C6.14897 123.721 0.395572 131.414 0.395572 140.321C0.395572 149.191 5.80244 156.959 13.845 160.034V209.966C6.14896 213.043 0.395572 220.736 0.395572 229.643C0.395572 241.271 10.1223 251 21.7782 251C33.4342 251 43.1609 241.271 43.1609 229.643C43.1609 220.709 37.699 212.987 29.7115 209.63V160.034C37.754 156.959 43.1609 149.191 43.1609 140.321C43.1609 131.414 37.4075 123.721 29.7115 120.644V40.9429C37.3 37.6405 42.7653 30.3087 42.7653 21.3569C42.7653 9.72877 33.0386 0 21.3827 0ZM14.2842 21.3569C14.2842 17.5711 17.6113 14.2573 21.3827 14.2573C25.154 14.2573 28.4811 17.5711 28.4811 21.3569C28.4811 25.1427 25.154 28.4566 21.3827 28.4566C17.6113 28.4566 14.2842 25.1427 14.2842 21.3569ZM14.6797 140.321C14.6797 136.535 18.0069 133.222 21.7782 133.222C25.5496 133.222 28.8767 136.535 28.8767 140.321C28.8767 144.107 25.5496 147.421 21.7782 147.421C18.0069 147.421 14.6797 144.107 14.6797 140.321ZM14.6797 229.643C14.6797 225.857 18.0069 222.543 21.7782 222.543C25.5496 222.543 28.8767 225.857 28.8767 229.643C28.8767 233.509 25.8657 236.743 21.7782 236.743C18.0069 236.743 14.6797 233.429 14.6797 229.643Z" fill="white"/>
<path d="M110.389 10.2755H49.8447V25.7185H110.785C128.659 25.7185 141.437 30.3214 149.781 38.9283C158.144 47.5555 162.583 60.7494 162.583 79.0601C162.583 99.1323 157.172 113.02 147.535 120.866C137.551 128.994 123.682 133.587 106.038 133.587H49.8447V149.03H94.5661C106.951 149.03 116.623 148.233 123.957 147.012C141.882 144.161 156.166 137.164 165.508 125.285C174.773 113.503 179.24 97.7226 179.24 79.0601C179.24 58.4002 173.969 41.3545 163.019 29.1396C151.888 16.3216 134.196 10.2755 110.389 10.2755Z" fill="white"/>
<path fill-rule="evenodd" clip-rule="evenodd" d="M274.947 67.1896C247.116 67.1896 226.546 74.86 214.239 91.3967C202.235 107.526 196.206 129.212 196.206 156.921C196.206 188.093 202.987 211.929 216.377 226.992C229.94 242.647 253.251 249.815 284.441 249.815C300.685 249.815 316.541 246.57 330.793 240.467L332.722 239.641V223.739L328.336 225.515C314.023 231.313 299.794 234.372 285.627 234.372C267.308 234.372 252.782 231.639 242.272 226.764C231.862 221.935 224.526 214.579 220.106 204.642C215.887 195.157 213.239 182.891 212.581 168.397H344.589V135.974C344.589 123.691 342.13 112.188 337.596 101.893L337.575 101.845L337.552 101.798C332.539 91.3636 325.004 83.0058 315.009 76.7644C304.852 70.4219 291.153 67.1896 274.947 67.1896ZM226.548 101.802C235.196 89.201 250.931 82.6326 274.947 82.6326C294.208 82.6326 307.37 87.6268 315.636 97.3225C324.119 107.271 328.327 120.303 328.327 137.555V152.954H212.499C212.934 130.839 217.93 114.001 226.524 101.837L226.548 101.802Z" fill="white"/>
<path d="M447.02 67.1896C420.316 67.1896 398.862 74.4826 383.085 89.8304C367.221 105.264 359.577 128.365 359.577 158.502C359.577 186.206 365.604 208.344 378.865 224.906C392.349 241.747 414.035 249.815 443.46 249.815C453.138 249.815 461.657 249.008 469.798 247.382C477.874 245.768 484.829 243.732 491.417 240.852L493.324 240.019V224.266L489.016 225.88C482.765 228.222 475.817 230.532 468.528 232.066C460.809 233.607 453.509 234.372 446.229 234.372C420.167 234.372 402.305 227.758 392.094 215.734C381.717 203.514 376.235 184.243 376.235 158.107C376.235 131.719 382.835 112.907 395.082 100.671C407.359 88.4051 425.025 82.2374 448.602 82.2374C456.432 82.2374 463.262 82.6323 469.627 84.1287L469.698 84.1454L469.77 84.1589C475.762 85.2813 482.223 87.547 488.778 90.6289L493.324 92.7662V76.6448L491.487 75.7886C485.309 72.9081 478.776 70.8754 472.764 69.2735L472.648 69.2425L472.53 69.2204C465.968 67.9912 457.46 67.1896 447.02 67.1896Z" fill="white"/>
<path fill-rule="evenodd" clip-rule="evenodd" d="M584.677 67.1896C556.813 67.1896 536.342 74.8734 523.266 90.8889C510.355 106.702 504.354 129.281 504.354 158.502C504.354 187.771 510.77 210.302 523.234 226.076C535.935 242.149 556.849 249.815 584.677 249.815C612.892 249.815 633.811 242.154 646.516 226.076C658.999 210.278 665 187.727 665 158.502C665 129.281 659 106.702 646.089 90.8889C633.012 74.8734 612.541 67.1896 584.677 67.1896ZM534.967 101.181C544.415 89.1995 560.678 82.6326 584.677 82.6326C608.661 82.6326 624.919 89.191 634.369 101.158C643.65 113.414 648.738 132.361 648.738 158.502C648.738 184.718 644.016 203.612 634.387 215.823L634.351 215.871C625.314 227.789 609.105 234.372 584.677 234.372C560.729 234.372 544.433 227.831 534.572 215.824C525.303 203.567 520.221 184.627 520.221 158.502C520.221 132.338 525.318 113.417 534.967 101.181Z" fill="white"/>
<path fill-rule="evenodd" clip-rule="evenodd" d="M140.776 154.845L139.395 152.637L136.951 153.552C134.061 154.635 130.75 155.375 127.787 155.745L122.348 156.425L125.632 160.8C127.804 163.693 130.057 167.792 131.965 172.368L150.464 214.991C146.809 218.717 144.38 223.978 144.38 229.643C144.38 241.271 154.107 251 165.763 251C177.398 251 187.111 241.306 187.145 229.705C187.581 217.504 177.677 208.286 165.763 208.286H165.687C165.317 208.286 164.943 208.286 164.554 208.303L147.344 167.558L147.341 167.552C145.288 162.63 142.832 158.131 140.776 154.845ZM158.664 229.643C158.664 228.12 159.129 226.768 160.06 225.169C161.493 223.535 163.355 222.543 165.763 222.543H166.158C169.929 222.543 173.257 225.857 173.257 229.643C173.257 231.386 172.545 233.019 171.328 234.593C171 235 170.298 235.581 169.5 236C168.183 236.692 167.084 236.743 165.763 236.743C161.991 236.743 158.664 233.429 158.664 229.643Z" fill="white"/>
</svg>